<?xml version="1.0" standalone="no"?>
<!DOCTYPE svg PUBLIC "-//W3C//DTD SVG 1.1//EN" "http://www.w3.org/Graphics/SVG/1.1/DTD/svg11.dtd" >
<svg>
<metadata>
Created by FontForge 20110222 at Mon Mar  7 13:01:44 2011
 By www-data
Copyright zeldarayman 2010
</metadata>
<defs>
<font id="Casio-fx-7800GC" horiz-adv-x="767" >
  <font-face 
    font-family="Casio fx-7800GC"
    font-weight="400"
    font-stretch="normal"
    units-per-em="1024"
    panose-1="0 0 4 0 0 0 0 0 0 0"
    ascent="819"
    descent="-205"
    x-height="883"
    cap-height="883"
    bbox="12 -115 883 1267"
    underline-thickness="51"
    underline-position="127"
    unicode-range="U+0020-201D"
  />
    <missing-glyph />
    <glyph glyph-name="space" unicode=" " horiz-adv-x="256" 
 />
    <glyph glyph-name="exclam" unicode="!" horiz-adv-x="511" 
d="M268 12v103h103v-103h-103zM268 268v103h103v-103h-103zM268 396v103h103v-103h-103zM268 524v103h103v-103h-103zM268 652v103h103v-103h-103zM268 780v103h103v-103h-103z" />
    <glyph glyph-name="quotedbl" unicode="&#x22;" horiz-adv-x="639" 
d="M140 524v103h103v-103h-103zM396 524v103h103v-103h-103zM140 652v103h103v-103h-103zM396 652v103h103v-103h-103zM140 780v103h103v-103h-103zM396 780v103h103v-103h-103z" />
    <glyph glyph-name="numbersign" unicode="#" horiz-adv-x="895" 
d="M140 12v103h103v-103h-103zM396 12v103h103v-103h-103zM140 140v103h103v-103h-103zM396 140v103h103v-103h-103zM12 268v103h103v-103h-103zM140 268v103h103v-103h-103zM268 268v103h103v-103h-103zM396 268v103h103v-103h-103zM524 268v103h103v-103h-103zM652 268
v103h103v-103h-103zM140 396v103h103v-103h-103zM524 396v103h103v-103h-103zM12 524v103h103v-103h-103zM140 524v103h103v-103h-103zM268 524v103h103v-103h-103zM396 524v103h103v-103h-103zM524 524v103h103v-103h-103zM652 524v103h103v-103h-103zM268 652v103h103
v-103h-103zM524 652v103h103v-103h-103zM268 780v103h103v-103h-103zM524 780v103h103v-103h-103z" />
    <glyph glyph-name="dollar" unicode="$" 
d="M268 -115v103h103v-103h-103zM140 12v103h103v-103h-103zM268 12v103h103v-103h-103zM396 12v103h103v-103h-103zM12 140v103h103v-103h-103zM268 140v103h103v-103h-103zM524 140v103h103v-103h-103zM268 268v103h103v-103h-103zM524 268v103h103v-103h-103zM140 396
v103h103v-103h-103zM268 396v103h103v-103h-103zM396 396v103h103v-103h-103zM12 524v103h103v-103h-103zM268 524v103h103v-103h-103zM12 652v103h103v-103h-103zM268 652v103h103v-103h-103zM524 652v103h103v-103h-103zM140 780v103h103v-103h-103zM268 780v103h103v-103
h-103zM396 780v103h103v-103h-103zM268 908v103h103v-103h-103z" />
    <glyph glyph-name="percent" unicode="%" horiz-adv-x="1023" 
d="M140 12v103h103v-103h-103zM524 12v103h103v-103h-103zM652 12v103h103v-103h-103zM780 12v103h103v-103h-103zM268 140v103h103v-103h-103zM524 140v103h103v-103h-103zM780 140v103h103v-103h-103zM268 268v103h103v-103h-103zM524 268v103h103v-103h-103zM652 268v103
h103v-103h-103zM780 268v103h103v-103h-103zM396 396v103h103v-103h-103zM524 524v103h103v-103h-103zM12 652v103h103v-103h-103zM140 652v103h103v-103h-103zM268 652v103h103v-103h-103zM524 652v103h103v-103h-103zM12 780v103h103v-103h-103zM268 780v103h103v-103
h-103zM652 780v103h103v-103h-103zM12 908v103h103v-103h-103zM140 908v103h103v-103h-103zM268 908v103h103v-103h-103zM780 908v103h103v-103h-103z" />
    <glyph glyph-name="ampersand" unicode="&#x26;" horiz-adv-x="895" 
d="M140 12v103h103v-103h-103zM268 12v103h103v-103h-103zM396 12v103h103v-103h-103zM652 12v103h103v-103h-103zM12 140v103h103v-103h-103zM524 140v103h103v-103h-103zM12 268v103h103v-103h-103zM396 268v103h103v-103h-103zM652 268v103h103v-103h-103zM12 396v103
h103v-103h-103zM268 396v103h103v-103h-103zM652 396v103h103v-103h-103zM140 524v103h103v-103h-103zM268 524v103h103v-103h-103zM12 652v103h103v-103h-103zM396 652v103h103v-103h-103zM140 780v103h103v-103h-103zM268 780v103h103v-103h-103z" />
    <glyph glyph-name="quotesingle" unicode="'" horiz-adv-x="511" 
d="M268 524v103h103v-103h-103zM268 652v103h103v-103h-103zM268 780v103h103v-103h-103z" />
    <glyph glyph-name="parenleft" unicode="(" horiz-adv-x="639" 
d="M396 -115v103h103v-103h-103zM268 12v103h103v-103h-103zM140 140v103h103v-103h-103zM140 268v103h103v-103h-103zM140 396v103h103v-103h-103zM140 524v103h103v-103h-103zM140 652v103h103v-103h-103zM268 780v103h103v-103h-103zM396 908v103h103v-103h-103z" />
    <glyph glyph-name="parenright" unicode=")" horiz-adv-x="639" 
d="M140 -115v103h103v-103h-103zM268 12v103h103v-103h-103zM396 140v103h103v-103h-103zM396 268v103h103v-103h-103zM396 396v103h103v-103h-103zM396 524v103h103v-103h-103zM396 652v103h103v-103h-103zM268 780v103h103v-103h-103zM140 908v103h103v-103h-103z" />
    <glyph glyph-name="asterisk" unicode="*" horiz-adv-x="639" 
d="M140 268v103h103v-103h-103zM396 268v103h103v-103h-103zM268 396v103h103v-103h-103zM140 524v103h103v-103h-103zM396 524v103h103v-103h-103z" />
    <glyph glyph-name="plus" unicode="+" 
d="M268 140v103h103v-103h-103zM268 268v103h103v-103h-103zM12 396v103h103v-103h-103zM140 396v103h103v-103h-103zM268 396v103h103v-103h-103zM396 396v103h103v-103h-103zM524 396v103h103v-103h-103zM268 524v103h103v-103h-103zM268 652v103h103v-103h-103z" />
    <glyph glyph-name="comma" unicode="," horiz-adv-x="511" 
d="M140 -115v103h103v-103h-103zM268 12v103h103v-103h-103zM140 140v103h103v-103h-103zM268 140v103h103v-103h-103z" />
    <glyph glyph-name="hyphen" unicode="-" 
d="M12 396v103h103v-103h-103zM140 396v103h103v-103h-103zM268 396v103h103v-103h-103zM396 396v103h103v-103h-103zM524 396v103h103v-103h-103z" />
    <glyph glyph-name="period" unicode="." horiz-adv-x="511" 
d="M140 12v103h103v-103h-103zM268 12v103h103v-103h-103zM140 140v103h103v-103h-103zM268 140v103h103v-103h-103z" />
    <glyph glyph-name="slash" unicode="/" horiz-adv-x="639" 
d="M140 12v103h103v-103h-103zM140 140v103h103v-103h-103zM268 268v103h103v-103h-103zM268 396v103h103v-103h-103zM268 524v103h103v-103h-103zM396 652v103h103v-103h-103zM396 780v103h103v-103h-103z" />
    <glyph glyph-name="zero" unicode="0" 
d="M140 12v103h103v-103h-103zM268 12v103h103v-103h-103zM396 12v103h103v-103h-103zM12 140v103h103v-103h-103zM140 140v103h103v-103h-103zM524 140v103h103v-103h-103zM12 268v103h103v-103h-103zM268 268v103h103v-103h-103zM524 268v103h103v-103h-103zM12 396v103
h103v-103h-103zM268 396v103h103v-103h-103zM524 396v103h103v-103h-103zM12 524v103h103v-103h-103zM396 524v103h103v-103h-103zM524 524v103h103v-103h-103zM12 652v103h103v-103h-103zM396 652v103h103v-103h-103zM524 652v103h103v-103h-103zM140 780v103h103v-103
h-103zM268 780v103h103v-103h-103zM396 780v103h103v-103h-103z" />
    <glyph glyph-name="one" unicode="1" horiz-adv-x="639" 
d="M140 12v103h103v-103h-103zM268 12v103h103v-103h-103zM396 12v103h103v-103h-103zM268 140v103h103v-103h-103zM268 268v103h103v-103h-103zM268 396v103h103v-103h-103zM268 524v103h103v-103h-103zM140 652v103h103v-103h-103zM268 652v103h103v-103h-103zM268 780
v103h103v-103h-103z" />
    <glyph glyph-name="two" unicode="2" 
d="M12 12v103h103v-103h-103zM140 12v103h103v-103h-103zM268 12v103h103v-103h-103zM396 12v103h103v-103h-103zM524 12v103h103v-103h-103zM140 140v103h103v-103h-103zM268 268v103h103v-103h-103zM396 396v103h103v-103h-103zM524 524v103h103v-103h-103zM12 652v103
h103v-103h-103zM524 652v103h103v-103h-103zM140 780v103h103v-103h-103zM268 780v103h103v-103h-103zM396 780v103h103v-103h-103z" />
    <glyph glyph-name="three" unicode="3" 
d="M140 12v103h103v-103h-103zM268 12v103h103v-103h-103zM396 12v103h103v-103h-103zM12 140v103h103v-103h-103zM524 140v103h103v-103h-103zM524 268v103h103v-103h-103zM396 396v103h103v-103h-103zM268 524v103h103v-103h-103zM396 652v103h103v-103h-103zM12 780v103
h103v-103h-103zM140 780v103h103v-103h-103zM268 780v103h103v-103h-103zM396 780v103h103v-103h-103zM524 780v103h103v-103h-103z" />
    <glyph glyph-name="four" unicode="4" 
d="M396 12v103h103v-103h-103zM396 140v103h103v-103h-103zM12 268v103h103v-103h-103zM140 268v103h103v-103h-103zM268 268v103h103v-103h-103zM396 268v103h103v-103h-103zM524 268v103h103v-103h-103zM12 396v103h103v-103h-103zM396 396v103h103v-103h-103zM140 524
v103h103v-103h-103zM396 524v103h103v-103h-103zM268 652v103h103v-103h-103zM396 652v103h103v-103h-103zM396 780v103h103v-103h-103z" />
    <glyph glyph-name="five" unicode="5" 
d="M140 12v103h103v-103h-103zM268 12v103h103v-103h-103zM396 12v103h103v-103h-103zM12 140v103h103v-103h-103zM524 140v103h103v-103h-103zM524 268v103h103v-103h-103zM524 396v103h103v-103h-103zM12 524v103h103v-103h-103zM140 524v103h103v-103h-103zM268 524v103
h103v-103h-103zM396 524v103h103v-103h-103zM12 652v103h103v-103h-103zM12 780v103h103v-103h-103zM140 780v103h103v-103h-103zM268 780v103h103v-103h-103zM396 780v103h103v-103h-103zM524 780v103h103v-103h-103z" />
    <glyph glyph-name="six" unicode="6" 
d="M140 12v103h103v-103h-103zM268 12v103h103v-103h-103zM396 12v103h103v-103h-103zM12 140v103h103v-103h-103zM524 140v103h103v-103h-103zM12 268v103h103v-103h-103zM524 268v103h103v-103h-103zM12 396v103h103v-103h-103zM140 396v103h103v-103h-103zM268 396v103
h103v-103h-103zM396 396v103h103v-103h-103zM12 524v103h103v-103h-103zM140 652v103h103v-103h-103zM268 780v103h103v-103h-103zM396 780v103h103v-103h-103z" />
    <glyph glyph-name="seven" unicode="7" 
d="M268 12v103h103v-103h-103zM268 140v103h103v-103h-103zM268 268v103h103v-103h-103zM268 396v103h103v-103h-103zM396 524v103h103v-103h-103zM524 652v103h103v-103h-103zM12 780v103h103v-103h-103zM140 780v103h103v-103h-103zM268 780v103h103v-103h-103zM396 780
v103h103v-103h-103zM524 780v103h103v-103h-103z" />
    <glyph glyph-name="eight" unicode="8" 
d="M140 12v103h103v-103h-103zM268 12v103h103v-103h-103zM396 12v103h103v-103h-103zM12 140v103h103v-103h-103zM524 140v103h103v-103h-103zM12 268v103h103v-103h-103zM524 268v103h103v-103h-103zM140 396v103h103v-103h-103zM268 396v103h103v-103h-103zM396 396v103
h103v-103h-103zM12 524v103h103v-103h-103zM524 524v103h103v-103h-103zM12 652v103h103v-103h-103zM524 652v103h103v-103h-103zM140 780v103h103v-103h-103zM268 780v103h103v-103h-103zM396 780v103h103v-103h-103z" />
    <glyph glyph-name="nine" unicode="9" 
d="M140 12v103h103v-103h-103zM268 12v103h103v-103h-103zM396 140v103h103v-103h-103zM524 268v103h103v-103h-103zM140 396v103h103v-103h-103zM268 396v103h103v-103h-103zM396 396v103h103v-103h-103zM524 396v103h103v-103h-103zM12 524v103h103v-103h-103zM524 524
v103h103v-103h-103zM12 652v103h103v-103h-103zM524 652v103h103v-103h-103zM140 780v103h103v-103h-103zM268 780v103h103v-103h-103zM396 780v103h103v-103h-103z" />
    <glyph glyph-name="colon" unicode=":" horiz-adv-x="511" 
d="M268 140v103h103v-103h-103zM268 652v103h103v-103h-103z" />
    <glyph glyph-name="semicolon" unicode=";" horiz-adv-x="511" 
d="M268 140v103h103v-103h-103zM268 268v103h103v-103h-103zM268 652v103h103v-103h-103z" />
    <glyph glyph-name="less" unicode="&#x3c;" horiz-adv-x="639" 
d="M396 140v103h103v-103h-103zM268 268v103h103v-103h-103zM140 396v103h103v-103h-103zM268 524v103h103v-103h-103zM396 652v103h103v-103h-103z" />
    <glyph glyph-name="equal" unicode="=" horiz-adv-x="895" 
d="M12 268v103h103v-103h-103zM140 268v103h103v-103h-103zM268 268v103h103v-103h-103zM396 268v103h103v-103h-103zM524 268v103h103v-103h-103zM652 268v103h103v-103h-103zM12 524v103h103v-103h-103zM140 524v103h103v-103h-103zM268 524v103h103v-103h-103zM396 524
v103h103v-103h-103zM524 524v103h103v-103h-103zM652 524v103h103v-103h-103z" />
    <glyph glyph-name="greater" unicode="&#x3e;" horiz-adv-x="639" 
d="M140 140v103h103v-103h-103zM268 268v103h103v-103h-103zM396 396v103h103v-103h-103zM268 524v103h103v-103h-103zM140 652v103h103v-103h-103z" />
    <glyph glyph-name="question" unicode="?" 
d="M268 12v103h103v-103h-103zM268 268v103h103v-103h-103zM396 396v103h103v-103h-103zM524 524v103h103v-103h-103zM12 652v103h103v-103h-103zM524 652v103h103v-103h-103zM140 780v103h103v-103h-103zM268 780v103h103v-103h-103zM396 780v103h103v-103h-103z" />
    <glyph glyph-name="at" unicode="@" horiz-adv-x="1023" 
d="M268 -115v103h103v-103h-103zM396 -115v103h103v-103h-103zM524 -115v103h103v-103h-103zM652 -115v103h103v-103h-103zM140 12v103h103v-103h-103zM12 140v103h103v-103h-103zM268 140v103h103v-103h-103zM396 140v103h103v-103h-103zM524 140v103h103v-103h-103z
M652 140v103h103v-103h-103zM12 268v103h103v-103h-103zM268 268v103h103v-103h-103zM524 268v103h103v-103h-103zM780 268v103h103v-103h-103zM12 396v103h103v-103h-103zM268 396v103h103v-103h-103zM524 396v103h103v-103h-103zM780 396v103h103v-103h-103zM12 524v103
h103v-103h-103zM396 524v103h103v-103h-103zM524 524v103h103v-103h-103zM780 524v103h103v-103h-103zM140 652v103h103v-103h-103zM652 652v103h103v-103h-103zM268 780v103h103v-103h-103zM396 780v103h103v-103h-103zM524 780v103h103v-103h-103z" />
    <glyph glyph-name="A" unicode="A" 
d="M12 12v103h103v-103h-103zM524 12v103h103v-103h-103zM12 140v103h103v-103h-103zM524 140v103h103v-103h-103zM12 268v103h103v-103h-103zM524 268v103h103v-103h-103zM12 396v103h103v-103h-103zM140 396v103h103v-103h-103zM268 396v103h103v-103h-103zM396 396v103
h103v-103h-103zM524 396v103h103v-103h-103zM12 524v103h103v-103h-103zM524 524v103h103v-103h-103zM12 652v103h103v-103h-103zM524 652v103h103v-103h-103zM140 780v103h103v-103h-103zM268 780v103h103v-103h-103zM396 780v103h103v-103h-103z" />
    <glyph glyph-name="B" unicode="B" 
d="M12 12v103h103v-103h-103zM140 12v103h103v-103h-103zM268 12v103h103v-103h-103zM396 12v103h103v-103h-103zM12 140v103h103v-103h-103zM524 140v103h103v-103h-103zM12 268v103h103v-103h-103zM524 268v103h103v-103h-103zM12 396v103h103v-103h-103zM140 396v103h103
v-103h-103zM268 396v103h103v-103h-103zM396 396v103h103v-103h-103zM12 524v103h103v-103h-103zM524 524v103h103v-103h-103zM12 652v103h103v-103h-103zM524 652v103h103v-103h-103zM12 780v103h103v-103h-103zM140 780v103h103v-103h-103zM268 780v103h103v-103h-103z
M396 780v103h103v-103h-103z" />
    <glyph glyph-name="C" unicode="C" 
d="M140 12v103h103v-103h-103zM268 12v103h103v-103h-103zM396 12v103h103v-103h-103zM12 140v103h103v-103h-103zM524 140v103h103v-103h-103zM12 268v103h103v-103h-103zM12 396v103h103v-103h-103zM12 524v103h103v-103h-103zM12 652v103h103v-103h-103zM524 652v103h103
v-103h-103zM140 780v103h103v-103h-103zM268 780v103h103v-103h-103zM396 780v103h103v-103h-103z" />
    <glyph glyph-name="D" unicode="D" 
d="M12 12v103h103v-103h-103zM140 12v103h103v-103h-103zM268 12v103h103v-103h-103zM12 140v103h103v-103h-103zM396 140v103h103v-103h-103zM12 268v103h103v-103h-103zM524 268v103h103v-103h-103zM12 396v103h103v-103h-103zM524 396v103h103v-103h-103zM12 524v103h103
v-103h-103zM524 524v103h103v-103h-103zM12 652v103h103v-103h-103zM396 652v103h103v-103h-103zM12 780v103h103v-103h-103zM140 780v103h103v-103h-103zM268 780v103h103v-103h-103z" />
    <glyph glyph-name="E" unicode="E" 
d="M12 12v103h103v-103h-103zM140 12v103h103v-103h-103zM268 12v103h103v-103h-103zM396 12v103h103v-103h-103zM524 12v103h103v-103h-103zM12 140v103h103v-103h-103zM12 268v103h103v-103h-103zM12 396v103h103v-103h-103zM140 396v103h103v-103h-103zM268 396v103h103
v-103h-103zM396 396v103h103v-103h-103zM12 524v103h103v-103h-103zM12 652v103h103v-103h-103zM12 780v103h103v-103h-103zM140 780v103h103v-103h-103zM268 780v103h103v-103h-103zM396 780v103h103v-103h-103zM524 780v103h103v-103h-103z" />
    <glyph glyph-name="F" unicode="F" 
d="M12 12v103h103v-103h-103zM12 140v103h103v-103h-103zM12 268v103h103v-103h-103zM12 396v103h103v-103h-103zM140 396v103h103v-103h-103zM268 396v103h103v-103h-103zM396 396v103h103v-103h-103zM12 524v103h103v-103h-103zM12 652v103h103v-103h-103zM12 780v103h103
v-103h-103zM140 780v103h103v-103h-103zM268 780v103h103v-103h-103zM396 780v103h103v-103h-103zM524 780v103h103v-103h-103z" />
    <glyph glyph-name="G" unicode="G" 
d="M140 12v103h103v-103h-103zM268 12v103h103v-103h-103zM396 12v103h103v-103h-103zM524 12v103h103v-103h-103zM12 140v103h103v-103h-103zM524 140v103h103v-103h-103zM12 268v103h103v-103h-103zM524 268v103h103v-103h-103zM12 396v103h103v-103h-103zM268 396v103
h103v-103h-103zM396 396v103h103v-103h-103zM524 396v103h103v-103h-103zM12 524v103h103v-103h-103zM12 652v103h103v-103h-103zM524 652v103h103v-103h-103zM140 780v103h103v-103h-103zM268 780v103h103v-103h-103zM396 780v103h103v-103h-103z" />
    <glyph glyph-name="H" unicode="H" 
d="M12 12v103h103v-103h-103zM524 12v103h103v-103h-103zM12 140v103h103v-103h-103zM524 140v103h103v-103h-103zM12 268v103h103v-103h-103zM524 268v103h103v-103h-103zM12 396v103h103v-103h-103zM140 396v103h103v-103h-103zM268 396v103h103v-103h-103zM396 396v103
h103v-103h-103zM524 396v103h103v-103h-103zM12 524v103h103v-103h-103zM524 524v103h103v-103h-103zM12 652v103h103v-103h-103zM524 652v103h103v-103h-103zM12 780v103h103v-103h-103zM524 780v103h103v-103h-103z" />
    <glyph glyph-name="I" unicode="I" horiz-adv-x="639" 
d="M140 12v103h103v-103h-103zM268 12v103h103v-103h-103zM396 12v103h103v-103h-103zM268 140v103h103v-103h-103zM268 268v103h103v-103h-103zM268 396v103h103v-103h-103zM268 524v103h103v-103h-103zM268 652v103h103v-103h-103zM140 780v103h103v-103h-103zM268 780
v103h103v-103h-103zM396 780v103h103v-103h-103z" />
    <glyph glyph-name="J" unicode="J" 
d="M140 12v103h103v-103h-103zM268 12v103h103v-103h-103zM12 140v103h103v-103h-103zM396 140v103h103v-103h-103zM396 268v103h103v-103h-103zM396 396v103h103v-103h-103zM396 524v103h103v-103h-103zM396 652v103h103v-103h-103zM268 780v103h103v-103h-103zM396 780
v103h103v-103h-103zM524 780v103h103v-103h-103z" />
    <glyph glyph-name="K" unicode="K" 
d="M12 12v103h103v-103h-103zM524 12v103h103v-103h-103zM12 140v103h103v-103h-103zM396 140v103h103v-103h-103zM12 268v103h103v-103h-103zM268 268v103h103v-103h-103zM12 396v103h103v-103h-103zM140 396v103h103v-103h-103zM12 524v103h103v-103h-103zM268 524v103
h103v-103h-103zM12 652v103h103v-103h-103zM396 652v103h103v-103h-103zM12 780v103h103v-103h-103zM524 780v103h103v-103h-103z" />
    <glyph glyph-name="L" unicode="L" 
d="M12 12v103h103v-103h-103zM140 12v103h103v-103h-103zM268 12v103h103v-103h-103zM396 12v103h103v-103h-103zM524 12v103h103v-103h-103zM12 140v103h103v-103h-103zM12 268v103h103v-103h-103zM12 396v103h103v-103h-103zM12 524v103h103v-103h-103zM12 652v103h103
v-103h-103zM12 780v103h103v-103h-103z" />
    <glyph glyph-name="M" unicode="M" 
d="M12 12v103h103v-103h-103zM524 12v103h103v-103h-103zM12 140v103h103v-103h-103zM524 140v103h103v-103h-103zM12 268v103h103v-103h-103zM524 268v103h103v-103h-103zM12 396v103h103v-103h-103zM524 396v103h103v-103h-103zM12 524v103h103v-103h-103zM268 524v103
h103v-103h-103zM524 524v103h103v-103h-103zM12 652v103h103v-103h-103zM140 652v103h103v-103h-103zM396 652v103h103v-103h-103zM524 652v103h103v-103h-103zM12 780v103h103v-103h-103zM524 780v103h103v-103h-103z" />
    <glyph glyph-name="N" unicode="N" 
d="M12 12v103h103v-103h-103zM524 12v103h103v-103h-103zM12 140v103h103v-103h-103zM524 140v103h103v-103h-103zM12 268v103h103v-103h-103zM396 268v103h103v-103h-103zM524 268v103h103v-103h-103zM12 396v103h103v-103h-103zM268 396v103h103v-103h-103zM524 396v103
h103v-103h-103zM12 524v103h103v-103h-103zM140 524v103h103v-103h-103zM524 524v103h103v-103h-103zM12 652v103h103v-103h-103zM524 652v103h103v-103h-103zM12 780v103h103v-103h-103zM524 780v103h103v-103h-103z" />
    <glyph glyph-name="O" unicode="O" 
d="M140 12v103h103v-103h-103zM268 12v103h103v-103h-103zM396 12v103h103v-103h-103zM12 140v103h103v-103h-103zM524 140v103h103v-103h-103zM12 268v103h103v-103h-103zM524 268v103h103v-103h-103zM12 396v103h103v-103h-103zM524 396v103h103v-103h-103zM12 524v103
h103v-103h-103zM524 524v103h103v-103h-103zM12 652v103h103v-103h-103zM524 652v103h103v-103h-103zM140 780v103h103v-103h-103zM268 780v103h103v-103h-103zM396 780v103h103v-103h-103z" />
    <glyph glyph-name="P" unicode="P" 
d="M12 12v103h103v-103h-103zM12 140v103h103v-103h-103zM12 268v103h103v-103h-103zM12 396v103h103v-103h-103zM140 396v103h103v-103h-103zM268 396v103h103v-103h-103zM396 396v103h103v-103h-103zM12 524v103h103v-103h-103zM524 524v103h103v-103h-103zM12 652v103
h103v-103h-103zM524 652v103h103v-103h-103zM12 780v103h103v-103h-103zM140 780v103h103v-103h-103zM268 780v103h103v-103h-103zM396 780v103h103v-103h-103z" />
    <glyph glyph-name="Q" unicode="Q" 
d="M140 12v103h103v-103h-103zM268 12v103h103v-103h-103zM524 12v103h103v-103h-103zM12 140v103h103v-103h-103zM396 140v103h103v-103h-103zM12 268v103h103v-103h-103zM268 268v103h103v-103h-103zM524 268v103h103v-103h-103zM12 396v103h103v-103h-103zM524 396v103
h103v-103h-103zM12 524v103h103v-103h-103zM524 524v103h103v-103h-103zM12 652v103h103v-103h-103zM524 652v103h103v-103h-103zM140 780v103h103v-103h-103zM268 780v103h103v-103h-103zM396 780v103h103v-103h-103z" />
    <glyph glyph-name="R" unicode="R" 
d="M12 12v103h103v-103h-103zM524 12v103h103v-103h-103zM12 140v103h103v-103h-103zM396 140v103h103v-103h-103zM12 268v103h103v-103h-103zM268 268v103h103v-103h-103zM12 396v103h103v-103h-103zM140 396v103h103v-103h-103zM268 396v103h103v-103h-103zM396 396v103
h103v-103h-103zM12 524v103h103v-103h-103zM524 524v103h103v-103h-103zM12 652v103h103v-103h-103zM524 652v103h103v-103h-103zM12 780v103h103v-103h-103zM140 780v103h103v-103h-103zM268 780v103h103v-103h-103zM396 780v103h103v-103h-103z" />
    <glyph glyph-name="S" unicode="S" 
d="M140 12v103h103v-103h-103zM268 12v103h103v-103h-103zM396 12v103h103v-103h-103zM12 140v103h103v-103h-103zM524 140v103h103v-103h-103zM524 268v103h103v-103h-103zM140 396v103h103v-103h-103zM268 396v103h103v-103h-103zM396 396v103h103v-103h-103zM12 524v103
h103v-103h-103zM12 652v103h103v-103h-103zM524 652v103h103v-103h-103zM140 780v103h103v-103h-103zM268 780v103h103v-103h-103zM396 780v103h103v-103h-103z" />
    <glyph glyph-name="T" unicode="T" 
d="M268 12v103h103v-103h-103zM268 140v103h103v-103h-103zM268 268v103h103v-103h-103zM268 396v103h103v-103h-103zM268 524v103h103v-103h-103zM268 652v103h103v-103h-103zM12 780v103h103v-103h-103zM140 780v103h103v-103h-103zM268 780v103h103v-103h-103zM396 780
v103h103v-103h-103zM524 780v103h103v-103h-103z" />
    <glyph glyph-name="U" unicode="U" 
d="M140 12v103h103v-103h-103zM268 12v103h103v-103h-103zM396 12v103h103v-103h-103zM12 140v103h103v-103h-103zM524 140v103h103v-103h-103zM12 268v103h103v-103h-103zM524 268v103h103v-103h-103zM12 396v103h103v-103h-103zM524 396v103h103v-103h-103zM12 524v103
h103v-103h-103zM524 524v103h103v-103h-103zM12 652v103h103v-103h-103zM524 652v103h103v-103h-103zM12 780v103h103v-103h-103zM524 780v103h103v-103h-103z" />
    <glyph glyph-name="V" unicode="V" 
d="M268 12v103h103v-103h-103zM140 140v103h103v-103h-103zM396 140v103h103v-103h-103zM12 268v103h103v-103h-103zM524 268v103h103v-103h-103zM12 396v103h103v-103h-103zM524 396v103h103v-103h-103zM12 524v103h103v-103h-103zM524 524v103h103v-103h-103zM12 652v103
h103v-103h-103zM524 652v103h103v-103h-103zM12 780v103h103v-103h-103zM524 780v103h103v-103h-103z" />
    <glyph glyph-name="W" unicode="W" 
d="M140 12v103h103v-103h-103zM396 12v103h103v-103h-103zM12 140v103h103v-103h-103zM268 140v103h103v-103h-103zM524 140v103h103v-103h-103zM12 268v103h103v-103h-103zM268 268v103h103v-103h-103zM524 268v103h103v-103h-103zM12 396v103h103v-103h-103zM268 396v103
h103v-103h-103zM524 396v103h103v-103h-103zM12 524v103h103v-103h-103zM524 524v103h103v-103h-103zM12 652v103h103v-103h-103zM524 652v103h103v-103h-103zM12 780v103h103v-103h-103zM524 780v103h103v-103h-103z" />
    <glyph glyph-name="X" unicode="X" 
d="M12 12v103h103v-103h-103zM524 12v103h103v-103h-103zM12 140v103h103v-103h-103zM524 140v103h103v-103h-103zM140 268v103h103v-103h-103zM396 268v103h103v-103h-103zM268 396v103h103v-103h-103zM140 524v103h103v-103h-103zM396 524v103h103v-103h-103zM12 652v103
h103v-103h-103zM524 652v103h103v-103h-103zM12 780v103h103v-103h-103zM524 780v103h103v-103h-103z" />
    <glyph glyph-name="Y" unicode="Y" 
d="M268 12v103h103v-103h-103zM268 140v103h103v-103h-103zM268 268v103h103v-103h-103zM140 396v103h103v-103h-103zM396 396v103h103v-103h-103zM12 524v103h103v-103h-103zM524 524v103h103v-103h-103zM12 652v103h103v-103h-103zM524 652v103h103v-103h-103zM12 780v103
h103v-103h-103zM524 780v103h103v-103h-103z" />
    <glyph glyph-name="Z" unicode="Z" 
d="M12 12v103h103v-103h-103zM140 12v103h103v-103h-103zM268 12v103h103v-103h-103zM396 12v103h103v-103h-103zM524 12v103h103v-103h-103zM12 140v103h103v-103h-103zM140 268v103h103v-103h-103zM268 396v103h103v-103h-103zM396 524v103h103v-103h-103zM524 652v103
h103v-103h-103zM12 780v103h103v-103h-103zM140 780v103h103v-103h-103zM268 780v103h103v-103h-103zM396 780v103h103v-103h-103zM524 780v103h103v-103h-103z" />
    <glyph glyph-name="bracketleft" unicode="[" horiz-adv-x="639" 
d="M140 -115v103h103v-103h-103zM268 -115v103h103v-103h-103zM396 -115v103h103v-103h-103zM140 12v103h103v-103h-103zM140 140v103h103v-103h-103zM140 268v103h103v-103h-103zM140 396v103h103v-103h-103zM140 524v103h103v-103h-103zM140 652v103h103v-103h-103z
M140 780v103h103v-103h-103zM140 908v103h103v-103h-103zM268 908v103h103v-103h-103zM396 908v103h103v-103h-103z" />
    <glyph glyph-name="backslash" unicode="\" horiz-adv-x="639" 
d="M396 12v103h103v-103h-103zM396 140v103h103v-103h-103zM268 268v103h103v-103h-103zM268 396v103h103v-103h-103zM268 524v103h103v-103h-103zM140 652v103h103v-103h-103zM140 780v103h103v-103h-103z" />
    <glyph glyph-name="bracketright" unicode="]" horiz-adv-x="639" 
d="M140 -115v103h103v-103h-103zM268 -115v103h103v-103h-103zM396 -115v103h103v-103h-103zM396 12v103h103v-103h-103zM396 140v103h103v-103h-103zM396 268v103h103v-103h-103zM396 396v103h103v-103h-103zM396 524v103h103v-103h-103zM396 652v103h103v-103h-103z
M396 780v103h103v-103h-103zM140 908v103h103v-103h-103zM268 908v103h103v-103h-103zM396 908v103h103v-103h-103z" />
    <glyph glyph-name="asciicircum" unicode="^" 
d="M12 524v103h103v-103h-103zM524 524v103h103v-103h-103zM140 652v103h103v-103h-103zM396 652v103h103v-103h-103zM268 780v103h103v-103h-103z" />
    <glyph glyph-name="underscore" unicode="_" 
d="M12 12v103h103v-103h-103zM140 12v103h103v-103h-103zM268 12v103h103v-103h-103zM396 12v103h103v-103h-103zM524 12v103h103v-103h-103z" />
    <glyph glyph-name="grave" unicode="`" horiz-adv-x="639" 
d="M268 1036v103h103v-103h-103zM396 1036v103h103v-103h-103zM140 1164v103h103v-103h-103z" />
    <glyph glyph-name="a" unicode="a" 
d="M12 12v103h103v-103h-103zM524 12v103h103v-103h-103zM12 140v103h103v-103h-103zM524 140v103h103v-103h-103zM12 268v103h103v-103h-103zM524 268v103h103v-103h-103zM12 396v103h103v-103h-103zM140 396v103h103v-103h-103zM268 396v103h103v-103h-103zM396 396v103
h103v-103h-103zM524 396v103h103v-103h-103zM12 524v103h103v-103h-103zM524 524v103h103v-103h-103zM12 652v103h103v-103h-103zM524 652v103h103v-103h-103zM140 780v103h103v-103h-103zM268 780v103h103v-103h-103zM396 780v103h103v-103h-103z" />
    <glyph glyph-name="b" unicode="b" 
d="M12 12v103h103v-103h-103zM140 12v103h103v-103h-103zM268 12v103h103v-103h-103zM396 12v103h103v-103h-103zM12 140v103h103v-103h-103zM524 140v103h103v-103h-103zM12 268v103h103v-103h-103zM524 268v103h103v-103h-103zM12 396v103h103v-103h-103zM140 396v103h103
v-103h-103zM268 396v103h103v-103h-103zM396 396v103h103v-103h-103zM12 524v103h103v-103h-103zM524 524v103h103v-103h-103zM12 652v103h103v-103h-103zM524 652v103h103v-103h-103zM12 780v103h103v-103h-103zM140 780v103h103v-103h-103zM268 780v103h103v-103h-103z
M396 780v103h103v-103h-103z" />
    <glyph glyph-name="c" unicode="c" 
d="M140 12v103h103v-103h-103zM268 12v103h103v-103h-103zM396 12v103h103v-103h-103zM12 140v103h103v-103h-103zM524 140v103h103v-103h-103zM12 268v103h103v-103h-103zM12 396v103h103v-103h-103zM12 524v103h103v-103h-103zM12 652v103h103v-103h-103zM524 652v103h103
v-103h-103zM140 780v103h103v-103h-103zM268 780v103h103v-103h-103zM396 780v103h103v-103h-103z" />
    <glyph glyph-name="d" unicode="d" 
d="M12 12v103h103v-103h-103zM140 12v103h103v-103h-103zM268 12v103h103v-103h-103zM12 140v103h103v-103h-103zM396 140v103h103v-103h-103zM12 268v103h103v-103h-103zM524 268v103h103v-103h-103zM12 396v103h103v-103h-103zM524 396v103h103v-103h-103zM12 524v103h103
v-103h-103zM524 524v103h103v-103h-103zM12 652v103h103v-103h-103zM396 652v103h103v-103h-103zM12 780v103h103v-103h-103zM140 780v103h103v-103h-103zM268 780v103h103v-103h-103z" />
    <glyph glyph-name="e" unicode="e" 
d="M12 12v103h103v-103h-103zM140 12v103h103v-103h-103zM268 12v103h103v-103h-103zM396 12v103h103v-103h-103zM524 12v103h103v-103h-103zM12 140v103h103v-103h-103zM12 268v103h103v-103h-103zM12 396v103h103v-103h-103zM140 396v103h103v-103h-103zM268 396v103h103
v-103h-103zM396 396v103h103v-103h-103zM12 524v103h103v-103h-103zM12 652v103h103v-103h-103zM12 780v103h103v-103h-103zM140 780v103h103v-103h-103zM268 780v103h103v-103h-103zM396 780v103h103v-103h-103zM524 780v103h103v-103h-103z" />
    <glyph glyph-name="f" unicode="f" 
d="M12 12v103h103v-103h-103zM12 140v103h103v-103h-103zM12 268v103h103v-103h-103zM12 396v103h103v-103h-103zM140 396v103h103v-103h-103zM268 396v103h103v-103h-103zM396 396v103h103v-103h-103zM12 524v103h103v-103h-103zM12 652v103h103v-103h-103zM12 780v103h103
v-103h-103zM140 780v103h103v-103h-103zM268 780v103h103v-103h-103zM396 780v103h103v-103h-103zM524 780v103h103v-103h-103z" />
    <glyph glyph-name="g" unicode="g" 
d="M140 12v103h103v-103h-103zM268 12v103h103v-103h-103zM396 12v103h103v-103h-103zM524 12v103h103v-103h-103zM12 140v103h103v-103h-103zM524 140v103h103v-103h-103zM12 268v103h103v-103h-103zM524 268v103h103v-103h-103zM12 396v103h103v-103h-103zM268 396v103
h103v-103h-103zM396 396v103h103v-103h-103zM524 396v103h103v-103h-103zM12 524v103h103v-103h-103zM12 652v103h103v-103h-103zM524 652v103h103v-103h-103zM140 780v103h103v-103h-103zM268 780v103h103v-103h-103zM396 780v103h103v-103h-103z" />
    <glyph glyph-name="h" unicode="h" 
d="M12 12v103h103v-103h-103zM524 12v103h103v-103h-103zM12 140v103h103v-103h-103zM524 140v103h103v-103h-103zM12 268v103h103v-103h-103zM524 268v103h103v-103h-103zM12 396v103h103v-103h-103zM140 396v103h103v-103h-103zM268 396v103h103v-103h-103zM396 396v103
h103v-103h-103zM524 396v103h103v-103h-103zM12 524v103h103v-103h-103zM524 524v103h103v-103h-103zM12 652v103h103v-103h-103zM524 652v103h103v-103h-103zM12 780v103h103v-103h-103zM524 780v103h103v-103h-103z" />
    <glyph glyph-name="i" unicode="i" horiz-adv-x="639" 
d="M140 12v103h103v-103h-103zM268 12v103h103v-103h-103zM396 12v103h103v-103h-103zM268 140v103h103v-103h-103zM268 268v103h103v-103h-103zM268 396v103h103v-103h-103zM268 524v103h103v-103h-103zM268 652v103h103v-103h-103zM140 780v103h103v-103h-103zM268 780
v103h103v-103h-103zM396 780v103h103v-103h-103z" />
    <glyph glyph-name="j" unicode="j" 
d="M140 12v103h103v-103h-103zM268 12v103h103v-103h-103zM12 140v103h103v-103h-103zM396 140v103h103v-103h-103zM396 268v103h103v-103h-103zM396 396v103h103v-103h-103zM396 524v103h103v-103h-103zM396 652v103h103v-103h-103zM268 780v103h103v-103h-103zM396 780
v103h103v-103h-103zM524 780v103h103v-103h-103z" />
    <glyph glyph-name="k" unicode="k" 
d="M12 12v103h103v-103h-103zM524 12v103h103v-103h-103zM12 140v103h103v-103h-103zM396 140v103h103v-103h-103zM12 268v103h103v-103h-103zM268 268v103h103v-103h-103zM12 396v103h103v-103h-103zM140 396v103h103v-103h-103zM12 524v103h103v-103h-103zM268 524v103
h103v-103h-103zM12 652v103h103v-103h-103zM396 652v103h103v-103h-103zM12 780v103h103v-103h-103zM524 780v103h103v-103h-103z" />
    <glyph glyph-name="l" unicode="l" 
d="M12 12v103h103v-103h-103zM140 12v103h103v-103h-103zM268 12v103h103v-103h-103zM396 12v103h103v-103h-103zM524 12v103h103v-103h-103zM12 140v103h103v-103h-103zM12 268v103h103v-103h-103zM12 396v103h103v-103h-103zM12 524v103h103v-103h-103zM12 652v103h103
v-103h-103zM12 780v103h103v-103h-103z" />
    <glyph glyph-name="m" unicode="m" 
d="M12 12v103h103v-103h-103zM524 12v103h103v-103h-103zM12 140v103h103v-103h-103zM524 140v103h103v-103h-103zM12 268v103h103v-103h-103zM524 268v103h103v-103h-103zM12 396v103h103v-103h-103zM524 396v103h103v-103h-103zM12 524v103h103v-103h-103zM268 524v103
h103v-103h-103zM524 524v103h103v-103h-103zM12 652v103h103v-103h-103zM140 652v103h103v-103h-103zM396 652v103h103v-103h-103zM524 652v103h103v-103h-103zM12 780v103h103v-103h-103zM524 780v103h103v-103h-103z" />
    <glyph glyph-name="n" unicode="n" 
d="M12 12v103h103v-103h-103zM524 12v103h103v-103h-103zM12 140v103h103v-103h-103zM524 140v103h103v-103h-103zM12 268v103h103v-103h-103zM396 268v103h103v-103h-103zM524 268v103h103v-103h-103zM12 396v103h103v-103h-103zM268 396v103h103v-103h-103zM524 396v103
h103v-103h-103zM12 524v103h103v-103h-103zM140 524v103h103v-103h-103zM524 524v103h103v-103h-103zM12 652v103h103v-103h-103zM524 652v103h103v-103h-103zM12 780v103h103v-103h-103zM524 780v103h103v-103h-103z" />
    <glyph glyph-name="o" unicode="o" 
d="M140 12v103h103v-103h-103zM268 12v103h103v-103h-103zM396 12v103h103v-103h-103zM12 140v103h103v-103h-103zM524 140v103h103v-103h-103zM12 268v103h103v-103h-103zM524 268v103h103v-103h-103zM12 396v103h103v-103h-103zM524 396v103h103v-103h-103zM12 524v103
h103v-103h-103zM524 524v103h103v-103h-103zM12 652v103h103v-103h-103zM524 652v103h103v-103h-103zM140 780v103h103v-103h-103zM268 780v103h103v-103h-103zM396 780v103h103v-103h-103z" />
    <glyph glyph-name="p" unicode="p" 
d="M12 12v103h103v-103h-103zM12 140v103h103v-103h-103zM12 268v103h103v-103h-103zM12 396v103h103v-103h-103zM140 396v103h103v-103h-103zM268 396v103h103v-103h-103zM396 396v103h103v-103h-103zM12 524v103h103v-103h-103zM524 524v103h103v-103h-103zM12 652v103
h103v-103h-103zM524 652v103h103v-103h-103zM12 780v103h103v-103h-103zM140 780v103h103v-103h-103zM268 780v103h103v-103h-103zM396 780v103h103v-103h-103z" />
    <glyph glyph-name="q" unicode="q" 
d="M140 12v103h103v-103h-103zM268 12v103h103v-103h-103zM524 12v103h103v-103h-103zM12 140v103h103v-103h-103zM396 140v103h103v-103h-103zM12 268v103h103v-103h-103zM268 268v103h103v-103h-103zM524 268v103h103v-103h-103zM12 396v103h103v-103h-103zM524 396v103
h103v-103h-103zM12 524v103h103v-103h-103zM524 524v103h103v-103h-103zM12 652v103h103v-103h-103zM524 652v103h103v-103h-103zM140 780v103h103v-103h-103zM268 780v103h103v-103h-103zM396 780v103h103v-103h-103z" />
    <glyph glyph-name="r" unicode="r" 
d="M12 12v103h103v-103h-103zM524 12v103h103v-103h-103zM12 140v103h103v-103h-103zM396 140v103h103v-103h-103zM12 268v103h103v-103h-103zM268 268v103h103v-103h-103zM12 396v103h103v-103h-103zM140 396v103h103v-103h-103zM268 396v103h103v-103h-103zM396 396v103
h103v-103h-103zM12 524v103h103v-103h-103zM524 524v103h103v-103h-103zM12 652v103h103v-103h-103zM524 652v103h103v-103h-103zM12 780v103h103v-103h-103zM140 780v103h103v-103h-103zM268 780v103h103v-103h-103zM396 780v103h103v-103h-103z" />
    <glyph glyph-name="s" unicode="s" 
d="M140 12v103h103v-103h-103zM268 12v103h103v-103h-103zM396 12v103h103v-103h-103zM12 140v103h103v-103h-103zM524 140v103h103v-103h-103zM524 268v103h103v-103h-103zM140 396v103h103v-103h-103zM268 396v103h103v-103h-103zM396 396v103h103v-103h-103zM12 524v103
h103v-103h-103zM12 652v103h103v-103h-103zM524 652v103h103v-103h-103zM140 780v103h103v-103h-103zM268 780v103h103v-103h-103zM396 780v103h103v-103h-103z" />
    <glyph glyph-name="t" unicode="t" 
d="M268 12v103h103v-103h-103zM268 140v103h103v-103h-103zM268 268v103h103v-103h-103zM268 396v103h103v-103h-103zM268 524v103h103v-103h-103zM268 652v103h103v-103h-103zM12 780v103h103v-103h-103zM140 780v103h103v-103h-103zM268 780v103h103v-103h-103zM396 780
v103h103v-103h-103zM524 780v103h103v-103h-103z" />
    <glyph glyph-name="u" unicode="u" 
d="M140 12v103h103v-103h-103zM268 12v103h103v-103h-103zM396 12v103h103v-103h-103zM12 140v103h103v-103h-103zM524 140v103h103v-103h-103zM12 268v103h103v-103h-103zM524 268v103h103v-103h-103zM12 396v103h103v-103h-103zM524 396v103h103v-103h-103zM12 524v103
h103v-103h-103zM524 524v103h103v-103h-103zM12 652v103h103v-103h-103zM524 652v103h103v-103h-103zM12 780v103h103v-103h-103zM524 780v103h103v-103h-103z" />
    <glyph glyph-name="v" unicode="v" 
d="M268 12v103h103v-103h-103zM140 140v103h103v-103h-103zM396 140v103h103v-103h-103zM12 268v103h103v-103h-103zM524 268v103h103v-103h-103zM12 396v103h103v-103h-103zM524 396v103h103v-103h-103zM12 524v103h103v-103h-103zM524 524v103h103v-103h-103zM12 652v103
h103v-103h-103zM524 652v103h103v-103h-103zM12 780v103h103v-103h-103zM524 780v103h103v-103h-103z" />
    <glyph glyph-name="w" unicode="w" 
d="M140 12v103h103v-103h-103zM396 12v103h103v-103h-103zM12 140v103h103v-103h-103zM268 140v103h103v-103h-103zM524 140v103h103v-103h-103zM12 268v103h103v-103h-103zM268 268v103h103v-103h-103zM524 268v103h103v-103h-103zM12 396v103h103v-103h-103zM268 396v103
h103v-103h-103zM524 396v103h103v-103h-103zM12 524v103h103v-103h-103zM524 524v103h103v-103h-103zM12 652v103h103v-103h-103zM524 652v103h103v-103h-103zM12 780v103h103v-103h-103zM524 780v103h103v-103h-103z" />
    <glyph glyph-name="x" unicode="x" 
d="M12 12v103h103v-103h-103zM524 12v103h103v-103h-103zM12 140v103h103v-103h-103zM524 140v103h103v-103h-103zM140 268v103h103v-103h-103zM396 268v103h103v-103h-103zM268 396v103h103v-103h-103zM140 524v103h103v-103h-103zM396 524v103h103v-103h-103zM12 652v103
h103v-103h-103zM524 652v103h103v-103h-103zM12 780v103h103v-103h-103zM524 780v103h103v-103h-103z" />
    <glyph glyph-name="y" unicode="y" 
d="M268 12v103h103v-103h-103zM268 140v103h103v-103h-103zM268 268v103h103v-103h-103zM140 396v103h103v-103h-103zM396 396v103h103v-103h-103zM12 524v103h103v-103h-103zM524 524v103h103v-103h-103zM12 652v103h103v-103h-103zM524 652v103h103v-103h-103zM12 780v103
h103v-103h-103zM524 780v103h103v-103h-103z" />
    <glyph glyph-name="z" unicode="z" 
d="M12 12v103h103v-103h-103zM140 12v103h103v-103h-103zM268 12v103h103v-103h-103zM396 12v103h103v-103h-103zM524 12v103h103v-103h-103zM12 140v103h103v-103h-103zM140 268v103h103v-103h-103zM268 396v103h103v-103h-103zM396 524v103h103v-103h-103zM524 652v103
h103v-103h-103zM12 780v103h103v-103h-103zM140 780v103h103v-103h-103zM268 780v103h103v-103h-103zM396 780v103h103v-103h-103zM524 780v103h103v-103h-103z" />
    <glyph glyph-name="braceleft" unicode="{" horiz-adv-x="639" 
d="M268 12v103h103v-103h-103zM396 12v103h103v-103h-103zM140 140v103h103v-103h-103zM268 268v103h103v-103h-103zM12 396v103h103v-103h-103zM140 396v103h103v-103h-103zM268 524v103h103v-103h-103zM140 652v103h103v-103h-103zM268 780v103h103v-103h-103zM396 780
v103h103v-103h-103z" />
    <glyph glyph-name="bar" unicode="|" horiz-adv-x="511" 
d="M268 12v103h103v-103h-103zM268 140v103h103v-103h-103zM268 268v103h103v-103h-103zM268 396v103h103v-103h-103zM268 524v103h103v-103h-103zM268 652v103h103v-103h-103zM268 780v103h103v-103h-103z" />
    <glyph glyph-name="braceright" unicode="}" horiz-adv-x="895" 
d="M268 12v103h103v-103h-103zM396 12v103h103v-103h-103zM524 140v103h103v-103h-103zM396 268v103h103v-103h-103zM524 396v103h103v-103h-103zM652 396v103h103v-103h-103zM396 524v103h103v-103h-103zM524 652v103h103v-103h-103zM268 780v103h103v-103h-103zM396 780
v103h103v-103h-103z" />
    <glyph glyph-name="asciitilde" unicode="~" 
d="M12 268v103h103v-103h-103zM396 268v103h103v-103h-103zM12 396v103h103v-103h-103zM268 396v103h103v-103h-103zM524 396v103h103v-103h-103zM140 524v103h103v-103h-103zM524 524v103h103v-103h-103z" />
    <glyph glyph-name="quoteleft" unicode="&#x2018;" horiz-adv-x="384" 
d="M140 524v103h103v-103h-103zM140 652v103h103v-103h-103zM140 780v103h103v-103h-103z" />
    <glyph glyph-name="quoteright" unicode="&#x2019;" horiz-adv-x="639" 
d="M396 524v103h103v-103h-103zM396 652v103h103v-103h-103zM396 780v103h103v-103h-103z" />
    <glyph glyph-name="quotedblleft" unicode="&#x201c;" horiz-adv-x="639" 
d="M140 524v103h103v-103h-103zM396 524v103h103v-103h-103zM140 652v103h103v-103h-103zM396 652v103h103v-103h-103zM140 780v103h103v-103h-103zM396 780v103h103v-103h-103z" />
    <glyph glyph-name="quotedblright" unicode="&#x201d;" horiz-adv-x="639" 
d="M140 524v103h103v-103h-103zM396 524v103h103v-103h-103zM140 652v103h103v-103h-103zM396 652v103h103v-103h-103zM140 780v103h103v-103h-103zM396 780v103h103v-103h-103z" />
  </font>
</defs>
</svg>
